<svg xmlns="http://www.w3.org/2000/svg" width="1200" height="675" viewBox="0 0 1200 675">
  <defs>
    <linearGradient id="bg" x1="0" y1="0" x2="1" y2="1">
      <stop offset="0%" stop-color="#111a26"/>
      <stop offset="100%" stop-color="#0b1118"/>
    </linearGradient>
    <linearGradient id="arm" x1="0" y1="0" x2="1" y2="1">
      <stop offset="0%" stop-color="#ffb087"/>
      <stop offset="100%" stop-color="#ff7a4f"/>
    </linearGradient>
  </defs>
  <rect width="1200" height="675" fill="url(#bg)"/>
  <rect x="60" y="60" width="1080" height="555" rx="28" fill="#101d2a" stroke="#2b3a4b" stroke-width="2"/>

  <text x="100" y="130" fill="#eef4f8" font-family="Arial, sans-serif" font-size="34">
    Disaster Response • Teleoperated Robotics
  </text>
  <text x="100" y="168" fill="#b6c5d3" font-family="Arial, sans-serif" font-size="18">
    MQTT links remote operators with a rescue arm in hazardous zones.
  </text>

  <rect x="90" y="220" width="520" height="320" rx="22" fill="#0c121a" stroke="#3a4b5c"/>
  <rect x="650" y="220" width="460" height="320" rx="22" fill="#0c121a" stroke="#3a4b5c"/>

  <rect x="120" y="248" width="460" height="32" rx="16" fill="#172331" stroke="#2b3a4b"/>
  <circle cx="150" cy="264" r="6" fill="#87f0ff"/>
  <circle cx="170" cy="264" r="6" fill="#ff7a4f"/>
  <circle cx="190" cy="264" r="6" fill="#2dd4bf"/>

  <rect x="140" y="300" width="180" height="110" rx="12" fill="#182636" stroke="#3a4b5c"/>
  <rect x="340" y="300" width="200" height="110" rx="12" fill="#182636" stroke="#3a4b5c"/>
  <circle cx="200" cy="355" r="36" fill="#0e1721" stroke="#3a4b5c"/>
  <rect x="165" y="420" width="220" height="80" rx="18" fill="#131f2b" stroke="#3a4b5c"/>
  <text x="190" y="468" fill="#87f0ff" font-family="Arial, sans-serif" font-size="14">REMOTE OPS</text>

  <rect x="680" y="248" width="400" height="32" rx="16" fill="#172331" stroke="#2b3a4b"/>
  <circle cx="710" cy="264" r="6" fill="#87f0ff"/>
  <circle cx="730" cy="264" r="6" fill="#ff7a4f"/>

  <rect x="700" y="290" width="170" height="110" rx="14" fill="#131f2b" stroke="#3a4b5c"/>
  <rect x="910" y="290" width="170" height="110" rx="14" fill="#131f2b" stroke="#3a4b5c"/>
  <path d="M770 330h150" stroke="url(#arm)" stroke-width="12" stroke-linecap="round"/>
  <path d="M845 330v80" stroke="url(#arm)" stroke-width="12" stroke-linecap="round"/>
  <path d="M845 410l-80 60" stroke="url(#arm)" stroke-width="12" stroke-linecap="round"/>
  <circle cx="765" cy="470" r="26" fill="#ff7a4f"/>
  <rect x="920" y="330" width="120" height="10" rx="5" fill="#87f0ff"/>
  <rect x="920" y="350" width="90" height="10" rx="5" fill="#ff7a4f"/>
  <text x="715" y="510" fill="#b6c5d3" font-family="Arial, sans-serif" font-size="12">Rescue Arm</text>
  <text x="965" y="510" fill="#b6c5d3" font-family="Arial, sans-serif" font-size="12">Hazard Zone</text>

  <path d="M610 320 C650 260, 690 260, 730 320" fill="none" stroke="#87f0ff" stroke-width="4" stroke-linecap="round"/>
  <path d="M610 360 C650 420, 690 420, 730 360" fill="none" stroke="#ff7a4f" stroke-width="3" stroke-linecap="round"/>
  <text x="620" y="345" fill="#87f0ff" font-family="Arial, sans-serif" font-size="12">MQTT</text>
</svg>
