<svg xmlns="http://www.w3.org/2000/svg" width="1200" height="675" viewBox="0 0 1200 675">
  <defs>
    <linearGradient id="bg" x1="0" y1="0" x2="1" y2="1">
      <stop offset="0%" stop-color="#0f1b27"/>
      <stop offset="100%" stop-color="#0a1016"/>
    </linearGradient>
    <linearGradient id="arm" x1="0" y1="0" x2="1" y2="1">
      <stop offset="0%" stop-color="#87f0ff"/>
      <stop offset="100%" stop-color="#34b6ff"/>
    </linearGradient>
  </defs>
  <rect width="1200" height="675" fill="url(#bg)"/>
  <rect x="60" y="60" width="1080" height="555" rx="28" fill="#101d2a" stroke="#2b3a4b" stroke-width="2"/>

  <text x="100" y="130" fill="#eef4f8" font-family="Arial, sans-serif" font-size="34">
    Warehouse Automation • MQTT Control Loop
  </text>
  <text x="100" y="168" fill="#b6c5d3" font-family="Arial, sans-serif" font-size="18">
    Robotic arm routes packages based on live sensor streams.
  </text>

  <rect x="90" y="220" width="520" height="320" rx="22" fill="#0c121a" stroke="#3a4b5c"/>
  <rect x="650" y="220" width="460" height="320" rx="22" fill="#0c121a" stroke="#3a4b5c"/>

  <rect x="120" y="248" width="460" height="32" rx="16" fill="#172331" stroke="#2b3a4b"/>
  <circle cx="150" cy="264" r="6" fill="#87f0ff"/>
  <circle cx="170" cy="264" r="6" fill="#ff7a4f"/>
  <circle cx="190" cy="264" r="6" fill="#2dd4bf"/>

  <rect x="130" y="300" width="140" height="70" rx="12" fill="#142231" stroke="#3a4b5c"/>
  <rect x="300" y="300" width="140" height="70" rx="12" fill="#142231" stroke="#3a4b5c"/>
  <rect x="470" y="300" width="120" height="70" rx="12" fill="#142231" stroke="#3a4b5c"/>
  <rect x="130" y="390" width="140" height="70" rx="12" fill="#142231" stroke="#3a4b5c"/>
  <rect x="300" y="390" width="140" height="70" rx="12" fill="#142231" stroke="#3a4b5c"/>
  <rect x="470" y="390" width="120" height="70" rx="12" fill="#142231" stroke="#3a4b5c"/>
  <rect x="150" y="322" width="100" height="6" rx="3" fill="#87f0ff"/>
  <rect x="320" y="322" width="100" height="6" rx="3" fill="#ff7a4f"/>
  <rect x="490" y="322" width="70" height="6" rx="3" fill="#2dd4bf"/>
  <text x="150" y="470" fill="#87f0ff" font-family="Arial, sans-serif" font-size="12">Inventory Grid</text>

  <rect x="680" y="248" width="400" height="32" rx="16" fill="#172331" stroke="#2b3a4b"/>
  <circle cx="710" cy="264" r="6" fill="#87f0ff"/>
  <circle cx="730" cy="264" r="6" fill="#ff7a4f"/>

  <path d="M720 310h170" stroke="url(#arm)" stroke-width="12" stroke-linecap="round"/>
  <path d="M805 310v70" stroke="url(#arm)" stroke-width="12" stroke-linecap="round"/>
  <path d="M805 380l-70 60" stroke="url(#arm)" stroke-width="12" stroke-linecap="round"/>
  <circle cx="735" cy="440" r="26" fill="#87f0ff"/>
  <rect x="900" y="350" width="150" height="100" rx="12" fill="#182636" stroke="#3a4b5c"/>
  <rect x="920" y="370" width="110" height="8" rx="4" fill="#ff7a4f"/>
  <rect x="920" y="388" width="80" height="8" rx="4" fill="#87f0ff"/>
  <text x="905" y="470" fill="#b6c5d3" font-family="Arial, sans-serif" font-size="12">Sorting Dock</text>

  <path d="M610 320 C650 260, 690 260, 730 320" fill="none" stroke="#87f0ff" stroke-width="4" stroke-linecap="round"/>
  <path d="M610 360 C650 420, 690 420, 730 360" fill="none" stroke="#ff7a4f" stroke-width="3" stroke-linecap="round"/>
  <text x="620" y="345" fill="#87f0ff" font-family="Arial, sans-serif" font-size="12">MQTT</text>
</svg>
