<svg xmlns="http://www.w3.org/2000/svg" width="1200" height="675" viewBox="0 0 1200 675">
  <defs>
    <linearGradient id="bg" x1="0" y1="0" x2="1" y2="1">
      <stop offset="0%" stop-color="#101924"/>
      <stop offset="100%" stop-color="#0b1118"/>
    </linearGradient>
    <linearGradient id="arm" x1="0" y1="0" x2="1" y2="1">
      <stop offset="0%" stop-color="#87f0ff"/>
      <stop offset="100%" stop-color="#ff7a4f"/>
    </linearGradient>
  </defs>
  <rect width="1200" height="675" fill="url(#bg)"/>
  <rect x="60" y="60" width="1080" height="555" rx="28" fill="#101d2a" stroke="#2b3a4b" stroke-width="2"/>

  <text x="100" y="130" fill="#eef4f8" font-family="Arial, sans-serif" font-size="34">
    Remote Surgery • Robotic Arm via MQTT
  </text>
  <text x="100" y="168" fill="#b6c5d3" font-family="Arial, sans-serif" font-size="18">
    Surgeon console streams motion targets to the operating arm in real time.
  </text>

  <rect x="90" y="220" width="420" height="300" rx="22" fill="#0c121a" stroke="#3a4b5c"/>
  <rect x="550" y="220" width="560" height="300" rx="22" fill="#0c121a" stroke="#3a4b5c"/>

  <rect x="120" y="248" width="360" height="32" rx="16" fill="#172331" stroke="#2b3a4b"/>
  <circle cx="150" cy="264" r="6" fill="#87f0ff"/>
  <circle cx="170" cy="264" r="6" fill="#ff7a4f"/>
  <circle cx="190" cy="264" r="6" fill="#2dd4bf"/>
  <rect x="140" y="300" width="140" height="90" rx="12" fill="#182636" stroke="#3a4b5c"/>
  <rect x="300" y="300" width="160" height="90" rx="12" fill="#182636" stroke="#3a4b5c"/>
  <circle cx="210" cy="345" r="36" fill="#0e1721" stroke="#3a4b5c"/>
  <circle cx="370" cy="345" r="36" fill="#0e1721" stroke="#3a4b5c"/>
  <rect x="165" y="410" width="220" height="80" rx="18" fill="#131f2b" stroke="#3a4b5c"/>
  <text x="190" y="458" fill="#87f0ff" font-family="Arial, sans-serif" font-size="14">SURGEON CONSOLE</text>

  <rect x="600" y="248" width="230" height="252" rx="18" fill="#131f2b" stroke="#3a4b5c"/>
  <rect x="860" y="248" width="230" height="252" rx="18" fill="#131f2b" stroke="#3a4b5c"/>
  <rect x="885" y="280" width="180" height="120" rx="14" fill="#0f1924" stroke="#3a4b5c"/>
  <circle cx="975" cy="400" r="40" fill="#0c121a" stroke="#3a4b5c"/>
  <rect x="620" y="280" width="190" height="50" rx="12" fill="#0f1924" stroke="#3a4b5c"/>
  <rect x="620" y="350" width="190" height="120" rx="12" fill="#0f1924" stroke="#3a4b5c"/>

  <path d="M700 315h120" stroke="url(#arm)" stroke-width="12" stroke-linecap="round"/>
  <path d="M760 315v70" stroke="url(#arm)" stroke-width="12" stroke-linecap="round"/>
  <path d="M760 385l-60 60" stroke="url(#arm)" stroke-width="12" stroke-linecap="round"/>
  <circle cx="700" cy="445" r="24" fill="#ff7a4f"/>
  <rect x="675" y="430" width="40" height="12" rx="6" fill="#87f0ff"/>
  <text x="640" y="510" fill="#b6c5d3" font-family="Arial, sans-serif" font-size="14">Robotic Arm</text>
  <text x="930" y="510" fill="#b6c5d3" font-family="Arial, sans-serif" font-size="14">Patient Bay</text>

  <path d="M510 330 C560 260, 610 260, 660 330" fill="none" stroke="#87f0ff" stroke-width="4" stroke-linecap="round"/>
  <path d="M510 370 C560 430, 610 430, 660 370" fill="none" stroke="#ff7a4f" stroke-width="3" stroke-linecap="round"/>
  <text x="520" y="350" fill="#87f0ff" font-family="Arial, sans-serif" font-size="12">MQTT</text>
</svg>
